<?xml version="1.0" standalone="no"?>
<!DOCTYPE svg PUBLIC "-//W3C//DTD SVG 20010904//EN"
 "http://www.w3.org/TR/2001/REC-SVG-20010904/DTD/svg10.dtd">
<svg version="1.0" xmlns="http://www.w3.org/2000/svg"
 width="262.000000pt" height="250.000000pt" viewBox="0 0 262.000000 250.000000"
 preserveAspectRatio="xMidYMid meet">

<g transform="translate(0.000000,250.000000) scale(0.100000,-0.100000)"
fill="#000000" stroke="none">
<path d="M964 2466 c-64 -28 -115 -91 -260 -317 -80 -127 -144 -232 -141 -235
3 -3 122 47 264 111 l258 118 195 13 c107 7 224 13 260 13 l65 0 295 -207 295
-208 44 -79 c39 -72 43 -86 42 -142 l-2 -63 63 -63 c48 -47 80 -93 132 -190
37 -70 69 -127 70 -127 1 0 -5 30 -15 68 -9 37 -36 141 -59 232 -23 91 -48
179 -55 195 -7 17 -18 48 -25 69 -10 30 -58 85 -195 225 -100 102 -220 225
-266 272 -112 116 -96 108 -449 209 -63 18 -181 52 -262 76 -154 46 -203 52
-254 30z"/>
<path d="M367 987 c-4 -34 -14 -127 -22 -207 -23 -207 -22 -261 5 -304 31 -52
67 -73 177 -106 91 -28 113 -30 313 -35 118 -3 227 -8 243 -10 15 -3 27 -1 27
3 0 4 -56 46 -123 95 -392 281 -375 265 -528 505 -40 62 -75 115 -79 117 -4 2
-10 -24 -13 -58z"/>
<path d="M2289 760 c-108 -13 -176 -30 -191 -48 -24 -28 -61 -93 -56 -98 6 -5
308 132 323 147 6 6 6 9 0 8 -6 -1 -40 -5 -76 -9z"/>
</g>
</svg>
